<svg id="Layer_1" data-name="Layer 1" xmlns="http://www.w3.org/2000/svg" viewBox="0 0 200 200">
  <defs>
    <style>
      .cls-1 {
        fill: #eeff38;
      }

      .cls-2 {
        fill: #092332;
      }
    </style>
  </defs>
  <rect class="cls-1" width="200" height="200" rx="23.26"/>
  <path class="cls-2" d="M111.84,69.7H86l-30.4,30.86V69.7H36.88v70.68h18.7V126.63L69,113l19.38,27.5h23.37L82.56,99.28Z"/>
  <path class="cls-2" d="M129.07,69.77V69a30.89,30.89,0,0,0,9.3-7.39c6.14-7.23,5.64-14.45,5.64-14.45h-20V69.77h-9.79V86h9.79v28.42c0,10.28,0,26.16,19.89,26.16s23.89-1.27,23.89-1.27V120.65c-19.07.95-23.89,2.56-23.89-7.87V86h23.89V69.77Z"/>
</svg>
